name C:\Users\r0593348\3dpredictsim\Results\Batchsim_tmt_linear\Pog_s1_tmt_bCst_d02_k2000_ig24_act.mot
datacolumns 128
datarows 4
range 1.17714650 1.21246090
endheader
time	pelvis_tilt	pelvis_list	pelvis_rotation	pelvis_tx	pelvis_ty	pelvis_tz	hip_flexion_l	hip_adduction_l	hip_rotation_l	hip_flexion_r	hip_adduction_r	hip_rotation_r	knee_angle_l	knee_angle_r	ankle_angle_l	ankle_angle_r	subtalar_angle_l	subtalar_angle_r	tmt_angle_l	tmt_angle_r	mtp_angle_l	mtp_angle_r	lumbar_extension	lumbar_bending	lumbar_rotation	arm_flex_l	arm_add_l	arm_rot_l	arm_flex_r	arm_add_r	arm_rot_r	elbow_flex_l	elbow_flex_r	pro_sup_l	pro_sup_r	glut_med1_l/activation	glut_med2_l/activation	glut_med3_l/activation	glut_min1_l/activation	glut_min2_l/activation	glut_min3_l/activation	semimem_l/activation	semiten_l/activation	bifemlh_l/activation	bifemsh_l/activation	sar_l/activation	add_long_l/activation	add_brev_l/activation	add_mag1_l/activation	add_mag2_l/activation	add_mag3_l/activation	tfl_l/activation	pect_l/activation	grac_l/activation	glut_max1_l/activation	glut_max2_l/activation	glut_max3_l/activation	iliacus_l/activation	psoas_l/activation	quad_fem_l/activation	gem_l/activation	peri_l/activation	rect_fem_l/activation	vas_med_l/activation	vas_int_l/activation	vas_lat_l/activation	med_gas_l/activation	lat_gas_l/activation	soleus_l/activation	tib_post_l/activation	flex_dig_l/activation	flex_hal_l/activation	tib_ant_l/activation	per_brev_l/activation	per_long_l/activation	per_tert_l/activation	ext_dig_l/activation	ext_hal_l/activation	ercspn_l/activation	intobl_l/activation	extobl_l/activation	glut_med1_r/activation	glut_med2_r/activation	glut_med3_r/activation	glut_min1_r/activation	glut_min2_r/activation	glut_min3_r/activation	semimem_r/activation	semiten_r/activation	bifemlh_r/activation	bifemsh_r/activation	sar_r/activation	add_long_r/activation	add_brev_r/activation	add_mag1_r/activation	add_mag2_r/activation	add_mag3_r/activation	tfl_r/activation	pect_r/activation	grac_r/activation	glut_max1_r/activation	glut_max2_r/activation	glut_max3_r/activation	iliacus_r/activation	psoas_r/activation	quad_fem_r/activation	gem_r/activation	peri_r/activation	rect_fem_r/activation	vas_med_r/activation	vas_int_r/activation	vas_lat_r/activation	med_gas_r/activation	lat_gas_r/activation	soleus_r/activation	tib_post_r/activation	flex_dig_r/activation	flex_hal_r/activation	tib_ant_r/activation	per_brev_r/activation	per_long_r/activation	per_tert_r/activation	ext_dig_r/activation	ext_hal_r/activation	ercspn_r/activation	intobl_r/activation	extobl_r/activation	
          1.17714650	         -2.92925748	         -1.37118385	          7.04000399	          1.47143313	          0.85848729	         -0.00211617	        -15.17326879	         -1.71847739	          7.52727941	         32.52460748	          1.39365037	         -1.10182604	        -16.74752677	        -17.02638613	         -7.02448326	          8.24456531	         13.57687963	          1.29782559	          0.50155907	          0.01345803	         29.30544300	         -0.09755737	         -0.51109080	         -0.68419856	         -2.39071751	          3.76901773	        -13.50097419	         17.40537936	        -10.67087287	        -13.48181363	          7.61660862	         41.03033254	         17.26284156	         86.51662706	         86.51662706	          0.17273081	          0.08145338	          0.06709891	          0.21802646	          0.12898803	          0.08344640	          0.05000329	          0.05000041	          0.05000039	          0.05000139	          0.09169789	          0.05459350	          0.05000060	          0.05000075	          0.05000115	          0.05000054	          0.17750386	          0.05001879	          0.05000270	          0.05001047	          0.05000398	          0.05000129	          0.34714366	          0.53592947	          0.05000135	          0.05000308	          0.05000145	          0.19943978	          0.09083294	          0.09090242	          0.08560191	          0.15158590	          0.23073643	          0.05980941	          0.15851383	          0.17845346	          0.20177442	          0.05000022	          0.29196221	          0.30692156	          0.05000016	          0.23454705	          0.05000041	          0.05000002	          0.05000008	          0.05000010	          0.05000060	          0.05000038	          0.05000070	          0.05000059	          0.05000060	          0.05000205	          0.05981046	          0.05980965	          0.18917303	          0.05000128	          0.05519936	          0.06932100	          0.11779958	          0.15619808	          0.15418456	          0.12970806	          0.05000203	          0.05980059	          0.05980889	          0.05000063	          0.06660279	          0.11046987	          0.05980878	          0.05909619	          0.15681671	          0.05000735	          0.05003062	          0.05000376	          0.12607570	          0.12742561	          0.10937782	          0.05980953	          0.05980951	          0.05980954	          0.05000016	          0.05001082	          0.05980876	          0.56205173	          0.32980128	          0.18957449	          0.30396530	          0.57741856	          0.36311552	          0.05239432	          0.11905906	          0.10382703	
          1.18891797	         -2.92212877	         -1.30712952	          7.20575172	          1.49012072	          0.85723823	         -0.00181056	        -15.39524824	         -1.90492197	          7.33615830	         31.85323098	          1.63179645	         -0.91708677	        -17.95779058	        -16.95669266	         -9.60320571	          7.68651841	         14.04521246	          0.90218507	          0.45612146	          0.02158548	         30.63611667	         -0.09697345	         -0.26769167	         -0.54596801	         -2.47327301	          3.39629080	        -13.55109314	         17.69437378	        -11.95752474	        -13.46768843	          7.43841664	         42.07827700	         17.24959171	         86.51662706	         86.51662706	          0.14440080	          0.06809412	          0.05981005	          0.18226744	          0.10783242	          0.06976037	          0.05000385	          0.05000022	          0.05000035	          0.05000019	          0.07665850	          0.14647874	          0.14964769	          0.16490503	          0.05023537	          0.05002555	          0.14839097	          0.05009453	          0.05000133	          0.05000829	          0.05000547	          0.05000887	          0.29020758	          0.44803014	          0.07153222	          0.06083736	          0.05981041	          0.16672905	          0.10647676	          0.11524388	          0.07156552	          0.12672382	          0.19289263	          0.05000003	          0.13251548	          0.14918481	          0.16868080	          0.24041446	          0.31187077	          0.28881286	          0.46771668	          0.38272623	          0.22593936	          0.05827819	          0.07154358	          0.05095567	          0.06311666	          0.06973981	          0.08488124	          0.05000432	          0.05000718	          0.05000099	          0.05000080	          0.05000036	          0.15814625	          0.05000015	          0.05000053	          0.05795167	          0.09847914	          0.28762344	          0.21720335	          0.13470491	          0.05000173	          0.05000194	          0.05000066	          0.05980972	          0.11002282	          0.12922002	          0.05000018	          0.05000041	          0.33422541	          0.07153124	          0.06270736	          0.07154366	          0.24040015	          0.23513818	          0.20619873	          0.05000000	          0.05000002	          0.05000000	          0.05000005	          0.05000068	          0.05000027	          0.69803860	          0.32836934	          0.20035946	          0.60755465	          0.63067094	          0.40230850	          0.05000001	          0.09953182	          0.08679804	
          1.20068943	         -2.90903442	         -1.24989337	          7.33948120	          1.50899862	          0.85573909	         -0.00152568	        -15.43171107	         -2.05948744	          7.14277093	         31.04247711	          1.84872759	         -0.66263294	        -19.52254465	        -17.50051518	        -11.97295051	          7.11111960	         14.47560851	          0.48640016	          0.37735421	         -0.01712983	         31.16292018	         -0.16187950	         -0.01500024	         -0.38876100	         -2.54121116	          2.95818265	        -13.60715550	         17.90829785	        -13.22136610	        -13.46575051	          7.34661092	         43.11048046	         17.20598426	         86.51662706	         86.51662706	          0.15620139	          0.05692596	          0.05000069	          0.15237347	          0.09014662	          0.05831890	          0.05002732	          0.05981378	          0.06381804	          0.05000194	          0.06408591	          0.15939977	          0.30029057	          0.15905964	          0.07875574	          0.11991383	          0.12405297	          0.06198450	          0.05981697	          0.05004279	          0.05014611	          0.05981279	          0.24260977	          0.37454767	          0.05980990	          0.05086001	          0.05000079	          0.13938330	          0.08901321	          0.09634241	          0.05982787	          0.10593945	          0.16125571	          0.05000001	          0.11078121	          0.12471661	          0.14101497	          0.43372289	          0.40294269	          0.30246025	          0.70176263	          0.51964391	          0.39672795	          0.07482283	          0.05980951	          0.05000035	          0.24348320	          0.24151497	          0.34792444	          0.05000076	          0.05000049	          0.12309355	          0.07904725	          0.05000109	          0.13468047	          0.05000026	          0.05000108	          0.07154399	          0.13894639	          0.24045024	          0.21706726	          0.16204500	          0.05000037	          0.07154204	          0.10708845	          0.05000032	          0.16828346	          0.16446087	          0.05000102	          0.05000034	          0.27940821	          0.05979989	          0.24952372	          0.05980958	          0.20097153	          0.19657268	          0.17237962	          0.05980957	          0.05980960	          0.05980955	          0.05280126	          0.05980964	          0.05980966	          0.60420501	          0.35230690	          0.18227451	          0.50790783	          0.62811206	          0.33632488	          0.05403622	          0.08558036	          0.07256202	
          1.21246090	         -2.89289506	         -1.19844802	          7.43619092	          1.52776579	          0.85402272	         -0.00124366	        -15.25617431	         -2.18002959	          6.96392099	         30.13793030	          2.05492269	         -0.37821249	        -21.47113764	        -18.15388123	        -13.82988614	          6.83263814	         14.86422625	          0.03893640	          0.28559634	         -0.00932240	         30.22692606	         -0.16957265	          0.22012077	         -0.21573355	         -2.59342361	          2.50130623	        -13.66648282	         18.05395580	        -14.39609211	        -13.47937933	          7.38432985	         44.11127306	         17.09266555	         86.51662706	         86.51662706	          0.24078144	          0.05000053	          0.05000023	          0.15303144	          0.07536157	          0.05000166	          0.05000709	          0.05000367	          0.05335124	          0.05000026	          0.05357580	          0.13325654	          0.25103953	          0.13297220	          0.06583994	          0.10024690	          0.10370677	          0.05182674	          0.05000663	          0.05000348	          0.05000237	          0.05000362	          0.20281864	          0.37005538	          0.05000050	          0.05000119	          0.05000038	          0.11652261	          0.08557926	          0.08557925	          0.05001569	          0.08856399	          0.13480768	          0.05000002	          0.09261165	          0.10426156	          0.11788673	          0.36258674	          0.33685567	          0.26239795	          0.64311447	          0.64919135	          0.33165956	          0.11107287	          0.05000002	          0.05000006	          0.31910838	          0.39248483	          0.49148116	          0.22312771	          0.23140720	          0.34901824	          0.06608299	          0.09134989	          0.11259114	          0.07154357	          0.05000200	          0.05980992	          0.11615741	          0.20101372	          0.20977603	          0.17334878	          0.05000032	          0.05980900	          0.08952614	          0.26427838	          0.21977058	          0.18620683	          0.05000031	          0.05000026	          0.23358175	          0.05000130	          0.28291365	          0.05000006	          0.20371022	          0.25547267	          0.21966920	          0.05000004	          0.05000008	          0.05000001	          0.05000001	          0.05000026	          0.05000021	          0.75198206	          0.29452422	          0.15237924	          0.72428135	          0.69116715	          0.50699748	          0.06892159	          0.07154413	          0.06066091	
